<?xml version="1.0" standalone="no"?>
<!DOCTYPE svg PUBLIC "-//W3C//DTD SVG 20010904//EN"
 "http://www.w3.org/TR/2001/REC-SVG-20010904/DTD/svg10.dtd">
<svg version="1.0" xmlns="http://www.w3.org/2000/svg"
 width="270.000000pt" height="270.000000pt" viewBox="0 0 270.000000 270.000000"
 preserveAspectRatio="xMidYMid meet">
<metadata>
Created by potrace 1.11, written by Peter Selinger 2001-2013
</metadata>
<g transform="translate(0.000000,270.000000) scale(0.100000,-0.100000)"
fill="#000000" stroke="none">
<path d="M1985 2684 c-93 -20 -236 -89 -311 -151 -116 -97 -207 -245 -241
-392 -15 -64 -17 -127 -18 -401 l0 -325 250 1 c285 1 338 10 470 74 148 72
260 186 332 337 64 134 66 144 70 526 l5 347 -244 -1 c-171 0 -264 -5 -313
-15z m465 -341 c0 -310 -8 -364 -71 -493 -58 -118 -163 -222 -280 -278 -125
-59 -166 -66 -394 -67 l-200 0 1 290 c0 286 1 291 27 370 48 144 129 253 250
337 127 87 214 107 470 107 l197 1 0 -267z"/>
<path d="M0 2305 c0 -279 11 -347 74 -480 73 -153 187 -267 340 -341 128 -62
182 -68 546 -69 l325 0 -1 250 c-1 285 -10 338 -74 470 -72 148 -186 260 -337
332 -134 64 -144 66 -525 70 l-348 5 0 -237z m695 130 c184 -38 354 -171 433
-336 59 -125 66 -166 67 -394 l0 -200 -290 1 c-286 0 -291 1 -370 27 -200 66
-349 212 -413 404 -24 72 -26 94 -30 296 l-4 217 269 0 c196 0 287 -4 338 -15z"/>
<path d="M805 1280 c-97 -11 -147 -25 -240 -70 -147 -71 -260 -185 -332 -337
-64 -134 -66 -144 -70 -525 l-5 -348 237 0 c279 0 347 11 480 74 153 73 267
187 341 340 62 128 68 182 69 546 l0 325 -205 1 c-113 1 -236 -2 -275 -6z
m389 -375 c0 -286 -1 -291 -27 -370 -66 -200 -212 -349 -404 -413 -72 -24 -94
-26 -295 -30 l-218 -4 0 269 c0 310 8 364 71 493 79 160 252 296 419 329 91
18 99 19 280 17 l175 -1 -1 -290z"/>
<path d="M1414 1275 c-13 -34 4 -497 21 -565 51 -206 197 -384 392 -477 134
-64 144 -66 526 -70 l347 -5 0 237 c0 279 -11 347 -74 480 -92 194 -257 331
-465 387 -67 18 -114 21 -408 25 -306 5 -333 4 -339 -12z m751 -108 c200 -66
349 -212 413 -404 24 -72 26 -94 30 -295 l4 -218 -269 0 c-310 0 -364 8 -493
71 -154 76 -277 226 -326 399 -16 58 -33 433 -20 466 6 14 33 16 294 12 277
-4 290 -5 367 -31z"/>
</g>
</svg>
