<?xml version="1.0" encoding="utf-8"?><svg viewBox="0 0 30 30" xmlns="http://www.w3.org/2000/svg" xmlns:xlink="http://www.w3.org/1999/xlink"><style>:root>svg{display:none}:root>svg:target{display:block}</style><svg fill="none" viewBox="0 0 30 30" id="logo" xmlns="http://www.w3.org/2000/svg"><path d="M.5 2.286h5.786a7.5 7.5 0 017.5 7.5v4H8a7.5 7.5 0 01-7.5-7.5v-4zM16.214 16.214H22a7.5 7.5 0 017.5 7.5v4h-5.786a7.5 7.5 0 01-7.5-7.5v-4zM16.214 8a7.5 7.5 0 017.5-7.5h4v5.786a7.5 7.5 0 01-7.5 7.5h-4V8zM2.286 23.714a7.5 7.5 0 017.5-7.5h4V22a7.5 7.5 0 01-7.5 7.5h-4v-5.786z" stroke="var(--logo-icon-color, #DAA520)"/></svg></svg>